<svg width="81" height="80" viewBox="0 0 81 80" fill="none" xmlns="http://www.w3.org/2000/svg">
<rect x="0.75" width="80" height="80" rx="40" fill="#C1121F"/>
<path d="M30.0835 32.2353L51.4168 32.2353M46.0835 52H35.4168C33.9441 52 32.7502 50.7359 32.7502 49.1765V33.6471C32.7502 32.8674 33.3471 32.2353 34.0835 32.2353H47.4168C48.1532 32.2353 48.7502 32.8674 48.7502 33.6471V49.1765C48.7502 50.7359 47.5563 52 46.0835 52ZM38.0835 32.2353H43.4168C44.1532 32.2353 44.7502 31.6032 44.7502 30.8235V29.4118C44.7502 28.6321 44.1532 28 43.4168 28H38.0835C37.3471 28 36.7502 28.6321 36.7502 29.4118V30.8235C36.7502 31.6032 37.3471 32.2353 38.0835 32.2353Z" stroke="white" stroke-width="2" stroke-linecap="round"/>
</svg>
